<?xml version="1.0" standalone="no"?>
<!DOCTYPE svg PUBLIC "-//W3C//DTD SVG 20010904//EN"
 "http://www.w3.org/TR/2001/REC-SVG-20010904/DTD/svg10.dtd">
<svg version="1.0" xmlns="http://www.w3.org/2000/svg"
 width="1710.000000pt" height="1710.000000pt" viewBox="0 0 1710.000000 1710.000000"
 preserveAspectRatio="xMidYMid meet">
<metadata>
Created by potrace 1.14, written by Peter Selinger 2001-2017
</metadata>
<g transform="translate(0.000000,1710.000000) scale(0.100000,-0.100000)"
fill="#000000" stroke="none">
<path d="M5494 15722 c-10 -2 -28 -7 -39 -12 -39 -17 -141 -60 -155 -65 -15
-5 -68 -27 -85 -35 -64 -30 -461 -190 -472 -190 -7 0 -13 -4 -13 -10 0 -5 -7
-10 -15 -10 -8 0 -23 -4 -33 -9 -9 -5 -28 -13 -42 -19 -14 -6 -57 -25 -97 -41
-39 -17 -74 -31 -78 -31 -3 0 -32 -12 -63 -26 -93 -43 -149 -63 -156 -57 -3 4
-6 1 -6 -5 0 -7 -6 -12 -13 -12 -7 0 -33 -10 -57 -21 -24 -12 -49 -22 -54 -24
-6 -1 -29 -10 -51 -20 -63 -28 -279 -116 -290 -118 -5 -1 -12 -4 -15 -8 -3 -3
-27 -13 -55 -24 -27 -10 -75 -29 -105 -43 -30 -14 -61 -25 -67 -25 -7 0 -13
-4 -13 -9 0 -4 -11 -8 -24 -8 -13 0 -26 -3 -28 -7 -1 -5 -41 -23 -88 -42 -47
-18 -108 -44 -136 -57 -28 -12 -60 -24 -70 -26 -11 -2 -25 -9 -32 -15 -12 -12
-34 -17 -54 -14 -5 0 -8 -3 -8 -9 0 -5 -9 -10 -20 -10 -11 0 -20 -5 -20 -10 0
-6 -6 -10 -12 -8 -7 1 -28 -6 -45 -15 -18 -10 -33 -15 -33 -11 0 4 -6 2 -12
-4 -17 -13 -188 -82 -205 -82 -7 0 -13 -5 -13 -11 0 -5 -4 -7 -10 -4 -5 3 -10
1 -10 -4 0 -6 -7 -11 -15 -11 -9 0 -35 -9 -57 -20 -23 -11 -47 -20 -52 -20 -6
0 -24 -7 -41 -16 -42 -22 -149 -64 -163 -64 -7 0 -12 -5 -12 -11 0 -6 -6 -9
-12 -7 -7 3 -19 -2 -27 -9 -7 -8 -20 -12 -27 -9 -8 3 -14 2 -14 -2 0 -9 -100
-48 -113 -44 -4 1 -7 -2 -7 -7 0 -8 -21 -17 -59 -26 -8 -2 -17 -7 -20 -12 -3
-4 -10 -8 -16 -8 -20 -1 -85 -29 -85 -38 0 -4 -4 -5 -10 -2 -5 3 -20 -1 -33
-10 -13 -8 -27 -12 -30 -8 -4 3 -7 2 -7 -4 0 -5 -6 -10 -12 -10 -7 0 -40 -13
-73 -29 -33 -15 -66 -29 -73 -30 -7 -1 -34 -13 -60 -25 -26 -12 -51 -23 -57
-23 -5 -1 -32 -11 -59 -24 -27 -12 -51 -22 -55 -22 -3 0 -22 -8 -41 -19 -19
-10 -39 -19 -45 -21 -22 -6 -61 -21 -78 -30 -10 -6 -22 -8 -27 -5 -6 4 -10 2
-10 -3 0 -10 -50 -35 -57 -28 -3 3 -12 -2 -20 -10 -8 -8 -18 -12 -23 -9 -5 3
-11 1 -15 -5 -4 -6 -11 -8 -16 -5 -5 4 -9 1 -9 -4 0 -6 -9 -11 -19 -11 -11 0
-26 -6 -33 -12 -7 -7 -20 -14 -28 -16 -8 -1 -24 -7 -35 -12 -11 -5 -49 -21
-85 -35 -36 -14 -74 -30 -85 -35 -11 -5 -27 -11 -35 -12 -8 -2 -21 -9 -28 -15
-12 -12 -34 -17 -54 -14 -5 0 -8 -4 -8 -9 0 -5 -3 -9 -7 -8 -5 1 -19 -4 -33
-12 -14 -7 -26 -13 -27 -12 -2 1 -24 -8 -50 -20 -27 -12 -55 -22 -63 -22 -8 0
-17 -3 -20 -6 -10 -10 -81 -40 -95 -40 -8 0 -15 -4 -15 -10 0 -5 -8 -10 -18
-10 -10 0 -22 -3 -26 -7 -4 -5 -11 -8 -14 -9 -4 -1 -23 -7 -42 -15 -19 -7 -38
-12 -42 -11 -5 1 -8 -3 -8 -9 0 -5 -4 -7 -10 -4 -5 3 -10 1 -10 -4 0 -6 -8
-11 -18 -11 -10 0 -28 -7 -40 -16 -12 -8 -22 -13 -22 -9 0 3 -13 -1 -29 -9
-16 -9 -30 -14 -32 -12 -2 2 -10 -2 -16 -9 -10 -11 -10 -17 2 -29 9 -8 15 -19
15 -23 -1 -4 10 -22 24 -40 15 -18 26 -37 26 -42 0 -6 4 -11 8 -11 5 0 15 -12
23 -27 8 -16 17 -30 20 -33 3 -3 24 -33 47 -66 23 -34 48 -69 56 -77 8 -8 13
-17 10 -19 -2 -3 5 -13 16 -23 11 -10 20 -24 20 -32 0 -7 5 -13 10 -13 6 0 10
-7 10 -15 0 -8 5 -15 10 -15 6 0 10 -6 10 -14 0 -8 4 -16 8 -18 5 -1 38 -46
72 -98 35 -52 66 -97 69 -100 14 -12 51 -70 51 -80 0 -6 7 -13 15 -16 8 -4 15
-10 15 -15 0 -7 79 -125 117 -175 4 -5 13 -17 18 -27 30 -50 160 -233 167
-235 4 -2 8 -9 8 -16 0 -7 11 -25 25 -40 13 -14 22 -26 19 -26 -3 0 4 -10 16
-22 11 -12 20 -27 20 -34 0 -6 7 -15 16 -18 8 -3 13 -10 10 -15 -3 -5 1 -11 9
-15 8 -3 15 -10 15 -16 0 -6 17 -34 38 -63 21 -29 87 -124 147 -212 60 -88
112 -161 117 -163 4 -2 8 -10 8 -18 0 -8 5 -14 10 -14 6 0 10 -7 10 -15 0 -7
8 -19 18 -24 9 -6 13 -11 7 -11 -7 0 -7 -3 0 -8 6 -4 35 -43 65 -87 30 -44 58
-81 62 -83 4 -2 8 -9 8 -16 0 -7 9 -21 20 -31 11 -10 20 -24 20 -32 0 -7 5
-13 10 -13 6 0 10 -7 10 -15 0 -8 5 -15 10 -15 6 0 10 -7 10 -15 0 -8 5 -15
10 -15 6 0 10 -5 10 -10 0 -6 9 -20 20 -32 11 -12 25 -34 32 -49 7 -15 16 -25
20 -23 4 3 8 -1 8 -9 0 -12 9 -26 50 -74 5 -7 10 -17 10 -23 0 -5 5 -10 10
-10 6 0 10 -6 10 -13 0 -8 9 -22 20 -32 11 -10 20 -24 20 -32 0 -7 4 -13 8
-13 5 0 15 -12 23 -27 8 -16 22 -37 32 -47 9 -11 17 -23 17 -28 0 -8 22 -37
52 -69 9 -9 14 -19 12 -22 -2 -2 5 -12 16 -22 11 -10 20 -22 20 -27 0 -6 8
-20 18 -33 9 -12 24 -33 32 -45 8 -12 34 -48 58 -81 23 -32 42 -63 42 -68 0
-5 3 -11 8 -13 4 -2 30 -37 57 -78 48 -72 55 -81 83 -115 7 -8 9 -15 5 -15 -4
0 -3 -4 3 -8 5 -4 39 -50 75 -102 35 -52 67 -96 71 -98 5 -2 8 -9 8 -16 0 -7
9 -21 20 -31 11 -10 20 -23 20 -29 0 -7 8 -19 18 -28 24 -23 48 -52 42 -53 -4
0 58 -95 69 -105 3 -3 11 -12 16 -22 10 -16 87 -129 175 -257 25 -35 52 -75
60 -87 56 -84 117 -171 127 -182 7 -7 13 -17 13 -21 0 -4 8 -16 18 -27 10 -10
29 -37 42 -59 13 -22 27 -42 31 -45 3 -3 21 -29 39 -57 17 -29 36 -53 41 -53
5 0 9 -4 9 -9 0 -12 81 -135 92 -139 4 -2 8 -8 8 -13 0 -9 37 -66 50 -79 3 -3
25 -34 49 -70 24 -36 48 -66 53 -68 4 -2 8 -8 8 -14 0 -6 14 -27 30 -48 17
-21 30 -42 30 -48 0 -6 3 -12 8 -14 4 -1 16 -16 28 -33 11 -16 42 -61 69 -100
27 -38 77 -110 111 -160 35 -49 69 -98 76 -107 7 -10 49 -70 93 -133 44 -64
106 -152 138 -196 31 -44 57 -84 57 -89 0 -6 3 -10 8 -10 4 0 20 -21 37 -48
16 -26 34 -52 40 -58 5 -6 16 -20 23 -30 32 -49 112 -162 131 -186 12 -14 21
-31 21 -37 0 -6 3 -11 8 -11 4 0 23 -25 42 -55 19 -30 38 -55 43 -55 4 0 7 -5
7 -11 0 -6 9 -23 21 -37 11 -15 49 -67 84 -117 35 -49 73 -103 85 -120 32 -44
139 -198 150 -215 11 -16 121 -172 145 -205 18 -26 132 -186 145 -205 6 -8 61
-86 123 -174 61 -87 119 -169 127 -181 14 -22 117 -169 376 -535 126 -178 145
-207 159 -229 6 -9 13 -18 16 -21 3 -3 26 -34 51 -70 114 -165 264 -376 273
-386 10 -11 119 -169 140 -202 6 -9 15 -21 20 -28 6 -6 37 -51 70 -98 33 -48
80 -116 105 -150 25 -35 52 -73 60 -86 8 -12 33 -47 56 -78 22 -32 64 -91 92
-132 28 -41 112 -160 186 -265 74 -104 176 -250 228 -323 51 -73 114 -162 141
-198 26 -36 47 -69 47 -74 0 -4 4 -10 8 -12 4 -1 30 -34 57 -73 56 -80 90
-129 140 -200 20 -27 59 -84 87 -125 28 -41 54 -77 58 -80 6 -5 273 -383 324
-460 16 -25 33 -47 36 -50 3 -3 31 -41 61 -85 30 -44 56 -82 59 -85 3 -3 66
-90 140 -195 74 -104 137 -192 140 -195 4 -3 9 -13 13 -22 9 -25 19 -22 45 15
65 92 102 143 109 152 5 6 42 57 83 115 41 58 78 110 82 115 5 6 35 48 68 95
32 47 65 93 74 102 8 9 23 29 33 45 20 31 148 211 162 229 5 6 26 35 47 65 21
30 43 57 49 61 6 5 6 8 0 8 -5 0 -2 5 7 11 10 5 18 15 18 20 0 6 6 17 13 24
19 22 31 38 51 70 11 16 23 34 28 40 9 9 166 229 198 275 14 21 37 50 60 77 5
7 10 17 10 23 0 6 7 13 15 16 8 4 15 10 15 16 0 11 51 81 63 86 4 2 7 8 7 12
0 5 21 38 48 73 26 36 54 75 62 87 8 12 22 30 30 41 8 10 31 41 50 69 19 29
52 74 73 100 20 27 37 54 37 59 0 5 4 11 8 13 5 1 23 26 42 53 19 28 39 56 46
62 7 7 23 29 35 50 24 38 43 63 67 89 7 8 10 14 5 14 -4 0 -3 4 2 8 6 4 28 32
50 62 22 30 42 57 45 60 3 3 18 25 34 49 16 25 33 50 38 55 8 11 65 90 110
154 13 18 33 45 45 60 13 15 23 30 23 33 0 3 8 16 18 27 9 12 28 38 42 57 14
20 36 51 50 69 14 19 32 44 40 56 8 12 21 28 28 36 6 7 12 15 12 18 0 8 134
190 142 194 5 2 8 10 8 18 0 8 5 14 10 14 6 0 10 6 10 14 0 8 4 16 8 18 6 2
101 129 152 204 48 69 155 220 160 224 4 3 22 28 40 55 19 28 66 93 105 147
38 53 76 104 83 115 19 28 435 607 455 634 10 13 25 36 35 50 19 30 276 388
289 404 5 6 24 33 43 60 18 28 36 52 39 55 6 5 22 27 82 113 49 70 207 291
224 312 9 11 24 32 33 48 9 15 20 27 24 27 4 0 8 5 8 11 0 6 17 33 38 59 39
51 340 470 357 498 6 9 13 21 18 26 9 13 63 86 74 101 43 56 63 85 63 90 0 4
6 12 13 19 6 8 19 23 27 36 15 22 125 175 157 220 10 13 66 92 125 175 59 82
111 155 116 160 4 6 54 75 111 155 56 80 107 147 112 148 5 2 9 8 9 13 0 6 21
39 48 74 26 35 88 121 137 191 50 70 96 133 103 140 6 7 12 16 12 21 0 4 10
20 23 35 26 33 12 13 269 373 114 160 211 295 215 300 5 6 24 33 43 60 19 28
48 68 65 91 16 22 39 53 50 68 11 16 35 48 53 72 17 24 32 48 32 53 0 5 4 11
8 13 4 2 30 35 57 73 27 39 53 75 58 80 15 19 122 170 147 207 14 21 28 38 33
38 4 0 7 5 7 10 0 6 5 16 11 23 5 7 54 73 107 148 53 75 105 147 115 160 9 13
163 229 342 479 178 250 328 460 332 465 8 10 315 437 343 478 8 12 63 89 122
172 59 82 113 158 120 168 25 36 160 223 192 267 18 25 36 52 39 61 6 18 10
16 -218 114 -71 31 -146 64 -165 73 -19 9 -37 17 -40 18 -3 0 -23 8 -45 18
-59 26 -79 34 -86 32 -4 0 -15 6 -25 14 -11 9 -37 22 -59 29 -22 8 -71 29
-109 47 -38 19 -73 34 -77 34 -5 0 -36 13 -71 29 -120 55 -143 65 -148 66 -8
2 -50 20 -110 48 -85 38 -133 60 -290 127 -80 34 -163 70 -185 80 -128 58
-156 70 -160 70 -3 0 -40 16 -82 36 -43 20 -84 37 -91 38 -7 1 -18 8 -24 14
-7 7 -17 12 -24 12 -6 0 -38 12 -70 27 -33 15 -61 28 -64 28 -3 1 -21 9 -40
18 -19 9 -73 33 -120 53 -47 20 -101 43 -120 52 -19 9 -38 15 -42 14 -5 -1 -8
2 -8 8 0 6 -3 9 -7 8 -7 -2 -86 31 -338 142 -22 10 -74 32 -115 50 -85 36
-141 61 -218 96 -29 13 -55 24 -58 24 -2 0 -43 18 -90 40 -47 22 -87 40 -89
40 -1 0 -20 8 -41 17 -22 9 -41 17 -44 18 -10 3 -87 37 -150 67 -36 17 -69 31
-75 33 -5 1 -32 12 -60 25 -27 12 -84 37 -125 55 -41 18 -95 41 -120 52 -68
30 -84 36 -93 35 -4 -1 -7 2 -7 8 0 5 -5 10 -11 10 -10 0 -161 64 -344 145
-186 83 -236 105 -239 105 -3 0 -33 13 -68 29 -35 16 -97 43 -138 61 -41 18
-93 40 -115 50 -22 10 -94 41 -160 70 -66 29 -139 61 -162 71 -51 23 -96 42
-103 43 -3 1 -11 5 -19 10 -8 5 -116 11 -240 12 -215 2 -1028 10 -1836 19
-1175 13 -1515 16 -1830 20 -192 2 -723 7 -1180 11 -456 3 -873 7 -926 8 -53
0 -104 0 -115 -2z m41 -501 c3 -11 7 -31 11 -43 6 -25 10 -46 19 -98 3 -19 11
-53 17 -75 6 -22 12 -49 14 -60 7 -50 35 -182 50 -240 3 -11 7 -36 10 -57 2
-20 8 -48 14 -62 5 -14 7 -26 5 -26 -2 0 0 -11 5 -25 5 -14 12 -46 16 -72 3
-27 10 -55 14 -63 4 -8 8 -19 8 -25 1 -38 16 -101 25 -107 9 -6 8 -8 -1 -8 -8
0 -10 -5 -6 -12 4 -6 11 -30 16 -52 4 -23 10 -51 13 -63 7 -31 15 -72 22 -108
6 -33 7 -39 16 -75 4 -14 9 -38 11 -55 3 -16 9 -47 15 -67 5 -21 7 -38 4 -38
-2 0 -1 -6 4 -12 4 -7 9 -24 9 -38 1 -14 3 -25 4 -25 1 0 4 -9 6 -20 3 -18 16
-80 31 -145 3 -14 5 -33 5 -42 0 -10 3 -18 7 -18 4 0 8 -12 8 -27 1 -16 4 -39
8 -53 11 -42 27 -124 29 -147 0 -13 3 -23 6 -23 3 0 6 -8 7 -17 1 -18 10 -66
18 -93 8 -29 18 -85 17 -102 0 -10 3 -18 7 -18 4 0 8 -6 8 -12 2 -35 11 -95
17 -108 3 -8 7 -28 10 -45 2 -16 5 -30 6 -30 3 0 10 -41 13 -72 1 -18 5 -33 9
-33 4 0 7 -8 6 -17 0 -10 3 -31 7 -48 4 -16 9 -39 10 -50 2 -11 4 -20 5 -20 4
0 11 -46 13 -77 1 -16 6 -28 11 -28 4 0 6 -7 3 -15 -4 -8 -3 -16 1 -19 4 -3 9
-22 10 -42 2 -21 6 -41 10 -44 4 -3 8 -14 9 -25 9 -77 11 -92 17 -105 8 -22
18 -72 18 -92 -1 -10 2 -18 6 -18 4 0 8 -8 8 -17 1 -16 4 -37 19 -125 3 -15 9
-38 14 -51 6 -14 7 -28 4 -31 -3 -3 0 -12 7 -21 7 -8 10 -15 7 -15 -2 0 2 -30
10 -67 8 -38 16 -77 19 -88 2 -11 8 -42 14 -70 11 -54 21 -104 24 -120 1 -5 6
-16 10 -24 7 -11 6 -12 -5 -6 -12 8 -12 6 -1 -8 8 -9 11 -21 7 -27 -3 -5 -2
-10 4 -10 6 0 8 -6 5 -14 -3 -8 -1 -23 5 -34 6 -10 11 -36 13 -56 1 -20 5 -36
9 -36 3 0 5 -10 5 -22 -1 -13 0 -27 3 -33 6 -11 10 -27 16 -65 5 -30 13 -65
15 -65 1 0 3 -11 5 -25 4 -29 11 -65 21 -100 3 -14 7 -36 9 -50 1 -14 5 -32 8
-40 5 -14 11 -43 24 -115 7 -39 9 -47 16 -65 3 -8 6 -23 6 -32 3 -43 6 -58 11
-58 3 0 6 -12 7 -28 3 -28 10 -67 13 -67 3 0 9 -39 12 -67 1 -16 5 -28 9 -28
4 0 6 -11 4 -25 -1 -14 1 -28 6 -30 4 -3 6 -14 4 -25 -2 -11 0 -20 5 -20 5 0
9 -8 8 -17 0 -10 2 -27 5 -38 2 -11 8 -38 12 -60 5 -22 9 -44 11 -50 1 -5 5
-27 9 -49 4 -21 9 -48 12 -60 3 -11 7 -34 10 -51 2 -16 7 -37 10 -45 8 -19 12
-37 17 -75 3 -16 5 -30 6 -30 1 0 4 -13 6 -30 2 -16 7 -41 11 -55 4 -14 8 -29
9 -35 1 -5 3 -12 4 -15 1 -3 4 -16 6 -30 2 -14 8 -45 13 -70 5 -25 12 -58 15
-75 4 -16 9 -41 13 -55 3 -14 7 -34 9 -45 3 -23 12 -60 14 -60 1 0 3 -13 6
-30 5 -37 12 -70 14 -70 1 0 3 -9 5 -20 7 -40 14 -70 20 -95 10 -39 17 -83 17
-102 -1 -10 3 -18 8 -18 5 0 7 -7 4 -15 -4 -8 -3 -23 1 -32 10 -22 14 -40 17
-70 1 -13 6 -23 11 -23 4 0 5 -5 2 -10 -4 -6 -4 -19 0 -28 4 -9 9 -26 10 -37
4 -22 12 -62 18 -85 3 -12 19 -102 22 -120 0 -3 3 -9 6 -15 3 -5 6 -26 8 -45
2 -19 6 -37 10 -40 3 -3 7 -14 7 -25 3 -31 11 -79 17 -95 6 -15 14 -55 23
-120 3 -19 8 -42 11 -50 3 -8 8 -24 10 -35 2 -11 8 -45 15 -75 6 -30 12 -62
14 -70 1 -8 5 -26 8 -40 3 -14 11 -50 16 -80 6 -30 14 -62 17 -70 3 -8 7 -22
8 -30 11 -70 17 -106 22 -113 3 -4 6 -18 8 -30 14 -87 22 -132 25 -132 1 0 4
-13 6 -30 3 -16 8 -41 13 -55 4 -14 7 -35 6 -47 -1 -13 3 -23 8 -23 5 0 7 -7
4 -15 -4 -8 -3 -16 1 -19 4 -2 9 -19 10 -37 2 -18 7 -36 13 -40 8 -5 8 -9 0
-14 -9 -5 -9 -10 -1 -20 7 -8 9 -19 5 -25 -3 -5 -1 -10 5 -10 6 0 9 -4 6 -8
-3 -5 -1 -24 4 -43 5 -19 11 -45 14 -59 3 -14 7 -34 9 -45 2 -11 8 -38 12 -60
15 -81 17 -94 29 -135 4 -14 9 -38 11 -55 2 -16 4 -30 5 -30 1 0 4 -13 6 -30
3 -16 7 -37 11 -45 9 -22 12 -40 15 -85 2 -22 6 -42 10 -45 3 -3 9 -21 11 -40
3 -19 6 -35 7 -35 2 0 9 -33 14 -70 3 -16 5 -30 6 -30 1 0 4 -11 5 -25 4 -27
13 -65 15 -65 2 0 6 -19 14 -65 6 -39 13 -72 22 -110 3 -14 8 -36 9 -50 2 -14
4 -25 5 -25 3 0 12 -40 15 -73 2 -18 7 -36 9 -41 3 -5 9 -26 12 -47 8 -51 12
-69 15 -69 1 0 3 -9 4 -20 2 -11 6 -36 10 -55 4 -19 9 -44 10 -55 2 -11 4 -20
5 -20 3 0 6 -16 16 -75 3 -19 8 -42 11 -50 4 -8 6 -17 5 -20 0 -3 7 -39 17
-81 10 -42 17 -83 15 -92 -1 -10 3 -17 9 -17 5 0 8 -2 5 -6 -3 -3 -2 -22 3
-42 17 -68 32 -139 34 -162 0 -8 4 -25 8 -36 4 -12 10 -37 12 -55 4 -29 11
-67 14 -76 1 -2 1 -4 1 -5 1 -2 5 -21 11 -43 5 -22 12 -53 14 -70 8 -49 10
-59 19 -73 4 -7 5 -19 2 -27 -3 -8 -2 -15 3 -15 4 0 7 -13 6 -30 -1 -16 1 -30
4 -30 4 0 8 -10 9 -22 2 -26 10 -63 12 -63 3 0 9 -39 12 -67 1 -16 5 -28 8
-28 4 0 7 -12 8 -27 1 -26 8 -68 12 -68 2 0 9 -34 15 -75 2 -19 9 -50 14 -67
5 -18 7 -33 5 -33 -3 0 -2 -6 3 -12 4 -7 9 -22 10 -33 9 -60 17 -96 24 -110 3
-5 4 -20 3 -33 0 -12 3 -22 9 -22 6 0 8 -2 5 -5 -3 -3 1 -34 9 -68 7 -34 15
-73 17 -87 2 -14 7 -36 10 -50 6 -26 19 -88 21 -105 1 -5 3 -12 4 -15 2 -3 5
-16 7 -30 1 -14 12 -64 22 -112 11 -49 17 -88 14 -88 -2 0 1 -7 8 -15 7 -8 10
-15 7 -15 -3 0 -1 -15 4 -32 5 -18 11 -49 14 -68 5 -40 24 -128 32 -150 3 -8
7 -26 8 -40 2 -14 6 -36 9 -50 4 -14 9 -38 12 -55 3 -16 12 -59 20 -95 9 -36
18 -76 20 -90 11 -64 27 -136 31 -150 3 -8 7 -28 10 -45 6 -50 8 -60 16 -72 4
-6 3 -14 -2 -17 -5 -4 -12 3 -16 14 -3 11 -11 20 -16 20 -5 0 -9 6 -9 14 0 8
-6 21 -13 28 -7 7 -38 49 -67 93 -30 44 -59 83 -65 87 -5 4 -6 8 -2 8 4 0 -3
12 -17 26 -13 15 -30 38 -38 53 -12 25 -21 37 -43 64 -6 7 -26 37 -45 67 -19
30 -37 57 -40 60 -4 3 -21 28 -40 55 -19 28 -38 53 -44 57 -7 5 -7 8 -1 8 7 0
7 3 0 8 -16 11 -75 99 -75 111 0 6 -4 11 -9 11 -5 0 -21 20 -35 45 -15 25 -31
45 -36 45 -6 0 -10 5 -10 12 0 6 -10 25 -23 42 -12 17 -29 43 -36 58 -8 15
-18 25 -23 22 -4 -3 -8 0 -8 7 0 14 -99 162 -112 167 -4 2 -8 10 -8 18 0 8 -4
14 -10 14 -5 0 -10 5 -10 10 0 6 -9 20 -20 32 -11 12 -20 28 -20 35 0 7 -4 13
-10 13 -5 0 -10 6 -10 14 0 8 -4 16 -8 18 -7 2 -94 124 -127 177 -25 39 -50
76 -55 81 -4 3 -30 41 -60 85 -29 44 -56 82 -59 85 -3 3 -12 17 -19 31 -12 23
-29 45 -72 96 -5 7 -10 16 -10 21 0 4 -9 18 -20 30 -12 12 -18 22 -15 22 3 0
1 6 -4 13 -48 58 -62 77 -55 77 5 0 -2 7 -14 16 -12 8 -22 19 -22 25 0 5 -15
31 -33 57 -19 26 -49 70 -68 97 -19 28 -37 52 -41 53 -5 2 -8 8 -8 13 0 6 -4
15 -10 22 -39 47 -78 106 -73 110 3 3 -4 12 -16 19 -12 7 -21 21 -21 30 0 10
-4 18 -8 18 -5 0 -48 60 -97 133 -49 72 -93 134 -97 135 -4 2 -8 10 -8 18 0 8
-4 14 -9 14 -5 0 -12 8 -15 18 -3 9 -17 29 -31 44 -14 16 -23 28 -21 28 5 0
-110 170 -134 197 -5 7 -10 17 -10 23 0 5 -3 10 -7 10 -10 0 -47 62 -45 73 1
4 -2 7 -7 7 -9 0 -66 82 -62 89 2 2 -1 7 -6 10 -13 10 -69 84 -83 111 -7 14
-16 27 -19 30 -3 3 -40 55 -80 115 -41 61 -77 112 -80 115 -4 3 -33 46 -66 95
-33 50 -65 96 -72 103 -7 7 -13 17 -13 21 0 4 -9 18 -20 31 -11 12 -34 46 -52
74 -18 28 -35 53 -38 56 -3 3 -25 34 -49 70 -24 36 -47 67 -50 70 -3 3 -12 17
-19 31 -8 14 -27 41 -43 60 -16 19 -29 38 -29 42 0 7 -8 18 -36 50 -6 7 -11
15 -12 20 -1 4 -13 22 -27 41 -14 18 -25 38 -25 44 0 7 -4 12 -8 12 -5 0 -24
24 -42 53 -19 28 -37 54 -40 57 -4 3 -13 16 -20 29 -7 14 -17 30 -21 35 -36
44 -107 146 -101 146 4 1 -3 9 -16 20 -13 10 -23 23 -22 27 0 4 -7 16 -15 26
-8 9 -15 21 -15 26 0 4 -9 16 -20 26 -11 10 -20 24 -20 32 0 7 -4 13 -10 13
-5 0 -10 5 -10 10 0 6 -9 20 -20 32 -11 12 -25 34 -32 49 -7 15 -16 25 -20 23
-4 -3 -8 0 -8 5 0 10 -75 123 -152 228 -21 29 -38 57 -38 63 0 5 -5 10 -12 10
-6 0 -9 3 -5 6 3 3 -5 18 -19 33 -13 14 -27 34 -30 44 -3 9 -10 17 -15 17 -5
0 -9 6 -9 14 0 8 -3 16 -7 18 -12 5 -73 95 -73 107 0 5 -6 14 -13 18 -7 4 -23
25 -36 46 -12 20 -27 37 -32 37 -4 0 -5 7 -2 17 4 11 3 14 -5 9 -7 -4 -12 -2
-12 5 0 7 -12 28 -27 48 -16 20 -32 43 -38 52 -26 42 -100 145 -109 151 -6 4
-7 8 -2 8 5 0 0 10 -11 23 -11 12 -35 45 -54 72 -18 28 -37 55 -41 60 -4 6
-24 35 -45 65 -20 30 -55 81 -77 114 -23 32 -46 67 -52 78 -6 10 -21 30 -33
44 -11 13 -21 29 -21 34 0 6 -4 10 -9 10 -5 0 -13 10 -17 22 -3 12 -15 31 -25
42 -11 11 -19 26 -19 33 0 7 -4 13 -9 13 -6 0 -20 18 -32 40 -13 22 -26 40
-31 40 -4 0 -8 7 -8 15 0 8 -4 15 -10 15 -5 0 -10 7 -10 15 0 8 -4 15 -10 15
-5 0 -10 7 -10 15 0 7 -8 19 -17 24 -10 6 -14 11 -10 11 4 0 -1 9 -11 20 -10
11 -25 33 -33 48 -8 15 -21 32 -29 39 -8 7 -10 13 -5 13 6 0 6 3 -1 8 -6 4
-39 50 -75 102 -35 52 -66 97 -69 100 -3 3 -19 25 -35 50 -17 25 -36 51 -43
58 -6 7 -12 17 -12 22 0 5 -6 15 -13 22 -6 7 -30 40 -52 73 -22 33 -43 62 -46
65 -3 3 -23 32 -44 65 -22 33 -43 62 -47 63 -5 2 -8 10 -8 17 0 7 -3 15 -7 17
-5 2 -30 37 -58 78 -27 41 -53 76 -57 78 -5 2 -8 8 -8 13 0 6 -4 15 -10 22
-42 52 -60 76 -60 80 0 4 -21 36 -47 72 -27 37 -52 75 -58 86 -5 10 -13 19
-17 19 -5 0 -8 7 -8 15 0 8 -4 15 -10 15 -5 0 -10 6 -10 14 0 8 -4 16 -8 18
-5 2 -33 39 -62 83 -29 44 -57 81 -62 83 -4 2 -8 7 -8 12 0 13 -83 130 -92
130 -4 0 -8 8 -8 18 0 10 -8 27 -18 38 -10 10 -28 35 -42 54 -13 19 -28 38
-33 41 -5 3 -8 10 -7 14 1 4 -7 18 -19 31 -12 13 -21 28 -21 32 0 5 -8 17 -18
28 -9 10 -35 46 -56 79 -22 33 -48 70 -59 83 -11 12 -17 22 -13 22 4 0 -3 10
-14 23 -12 12 -35 45 -53 72 -17 28 -34 52 -37 55 -15 15 -110 160 -110 170 0
6 -7 13 -15 16 -8 4 -15 12 -15 19 0 7 -4 15 -9 17 -7 3 -27 31 -76 106 -5 9
-18 25 -27 36 -10 11 -18 25 -18 32 0 7 -4 14 -8 16 -5 2 -28 32 -52 68 -24
36 -47 67 -52 68 -4 2 -8 10 -8 18 0 8 -4 14 -10 14 -5 0 -10 7 -10 15 0 8 -4
15 -10 15 -5 0 -10 7 -10 15 0 8 -3 15 -7 15 -5 0 -21 23 -38 50 -16 27 -34
50 -38 50 -5 0 -5 5 -2 10 3 6 2 10 -2 10 -5 0 -19 18 -33 40 -14 22 -28 40
-32 40 -5 0 -8 6 -8 13 0 7 -8 22 -17 33 -10 11 -40 53 -68 94 -27 41 -53 76
-57 78 -5 2 -8 10 -8 18 0 8 -5 14 -11 14 -5 0 -8 4 -5 8 3 5 -4 15 -15 22
-10 8 -19 18 -19 23 0 4 -5 13 -10 20 -6 7 -21 28 -33 47 -54 82 -121 175
-129 178 -4 2 -8 8 -8 13 0 15 -72 119 -82 119 -5 0 -6 5 -3 10 3 6 2 10 -3
10 -5 0 -15 12 -23 28 -8 15 -16 29 -19 32 -10 9 -50 68 -50 74 0 3 13 12 30
21 16 9 30 13 30 10 0 -3 10 1 23 10 13 8 27 12 30 8 4 -3 7 -2 7 4 0 6 10 14
22 18 13 4 25 8 28 9 3 2 17 6 32 10 16 5 28 12 28 18 0 5 4 7 9 3 6 -3 26 4
45 15 20 11 37 19 39 19 3 -1 57 19 82 30 85 38 115 50 148 62 20 7 37 16 37
21 0 4 6 5 14 2 8 -3 17 -1 21 5 3 6 15 11 26 11 10 0 19 4 19 10 0 5 3 9 8 8
8 -1 26 5 87 30 22 10 43 16 47 15 5 -2 8 2 8 7 0 6 4 10 9 10 5 0 22 5 38 12
15 6 32 10 36 10 4 -1 10 5 13 13 5 12 9 13 20 4 9 -7 14 -8 14 -1 0 6 13 13
30 17 16 4 30 10 30 13 0 4 15 12 33 18 53 19 102 39 107 44 3 3 12 6 20 8 31
6 70 25 70 34 0 5 4 6 10 3 5 -3 22 1 37 9 29 15 61 27 66 24 1 -1 16 5 32 14
29 15 85 41 95 43 3 0 15 6 28 13 12 7 22 10 22 7 0 -3 11 2 25 11 14 9 25 14
25 10 0 -3 17 3 37 14 21 11 43 20 50 20 7 0 13 5 13 12 0 6 3 9 6 5 3 -3 54
15 112 39 59 25 112 47 117 48 6 2 33 13 60 25 28 13 55 24 60 25 6 1 16 5 22
9 7 5 23 10 35 12 12 3 25 10 29 16 4 7 14 9 23 6 9 -4 16 -3 16 1 0 11 138
69 153 64 4 -1 7 2 7 7 0 5 13 12 30 16 16 4 32 11 35 16 4 5 13 9 21 9 8 0
34 9 59 20 25 11 65 29 90 40 25 11 47 20 51 20 3 0 30 11 60 25 30 14 57 25
60 25 3 0 30 11 60 25 30 14 59 25 64 25 5 0 25 9 45 20 19 11 36 20 38 19 5
-1 44 14 87 33 25 11 50 21 55 22 6 1 20 7 32 14 12 7 28 12 36 12 8 0 20 7
27 15 7 9 15 13 18 11 2 -3 13 -1 24 5 11 6 29 12 40 14 12 3 25 10 30 17 4 7
8 10 8 6 0 -3 35 8 78 26 72 31 110 47 122 51 6 2 5 2 210 86 80 33 154 64
165 69 11 5 36 15 55 23 19 8 56 24 82 36 26 11 52 21 57 21 5 0 22 6 38 14
15 8 39 19 53 24 72 30 160 67 197 83 24 11 50 19 58 19 8 0 15 5 15 10 0 6 6
10 13 10 6 0 61 20 121 45 59 25 113 45 118 45 5 0 16 7 25 15 18 18 22 16 28
-14z m6135 -59 c14 -6 56 -25 93 -41 38 -17 71 -31 75 -31 3 0 24 -9 46 -19
23 -11 86 -38 141 -61 55 -23 109 -47 120 -53 11 -6 24 -10 28 -9 5 1 22 -7
38 -18 16 -12 29 -19 29 -15 0 3 17 -3 39 -14 21 -11 41 -17 45 -14 3 4 6 1 6
-5 0 -7 4 -12 10 -12 5 0 34 -11 64 -25 30 -14 62 -25 70 -25 9 0 16 -4 16
-10 0 -5 6 -10 13 -10 6 -1 30 -9 52 -20 22 -10 43 -16 47 -14 5 3 8 1 8 -3 0
-5 17 -15 38 -22 20 -8 64 -27 98 -42 34 -16 66 -29 72 -29 7 0 12 -5 12 -11
0 -5 4 -8 8 -5 5 3 25 -4 45 -14 21 -11 37 -18 37 -16 0 2 27 -9 60 -25 33
-16 63 -29 66 -29 3 0 36 -14 72 -31 37 -17 72 -32 77 -34 6 -1 37 -14 70 -30
33 -15 65 -29 70 -30 39 -11 55 -18 55 -24 0 -4 6 -8 13 -8 6 0 35 -11 62 -23
28 -13 52 -24 55 -25 3 -1 21 -8 40 -17 19 -8 91 -39 160 -68 69 -29 131 -57
138 -62 6 -6 12 -7 12 -3 0 4 6 2 13 -4 8 -6 17 -8 20 -4 4 3 7 1 7 -5 0 -7 5
-12 10 -12 6 0 27 -7 48 -16 20 -10 44 -18 52 -20 8 -2 20 -10 26 -18 6 -9 14
-13 17 -10 3 4 26 -3 50 -15 24 -11 49 -21 55 -21 7 0 12 -5 12 -11 0 -6 7 -9
15 -5 8 3 15 0 15 -6 0 -6 3 -9 6 -6 3 4 30 -7 60 -23 30 -15 52 -23 48 -16
-4 7 1 5 12 -4 10 -9 34 -20 52 -24 17 -3 32 -11 32 -16 0 -5 9 -9 20 -9 11 0
20 -5 20 -11 0 -6 6 -9 13 -6 6 2 19 -2 28 -9 8 -7 24 -15 35 -17 10 -2 30 -9
44 -17 14 -8 30 -15 35 -16 6 -1 27 -9 47 -18 21 -9 39 -15 40 -14 2 2 14 -5
28 -15 13 -9 32 -17 42 -17 10 0 18 -4 18 -9 0 -5 10 -11 23 -15 13 -3 50 -18
83 -33 32 -14 61 -27 64 -28 3 -1 19 -7 35 -14 17 -7 31 -12 33 -11 2 1 13 -5
25 -13 12 -7 34 -17 50 -21 15 -3 27 -11 27 -16 0 -5 7 -7 15 -4 8 4 15 1 15
-5 0 -6 9 -11 19 -11 11 0 23 -5 26 -10 4 -6 10 -8 15 -5 5 3 14 -1 22 -8 7
-7 22 -16 33 -19 41 -13 134 -55 151 -69 10 -8 15 -9 11 -2 -4 6 10 3 30 -7
44 -22 116 -54 123 -55 3 0 15 -6 26 -13 12 -6 24 -8 28 -5 3 3 6 1 6 -6 0 -7
4 -10 9 -7 5 4 11 1 13 -4 2 -6 13 -12 26 -13 12 0 22 -5 22 -9 0 -4 5 -8 10
-8 6 0 30 -9 54 -21 25 -11 51 -22 59 -23 8 -1 26 -10 42 -20 15 -10 24 -12
19 -5 -4 7 6 4 22 -8 16 -11 34 -22 39 -23 6 -1 19 -6 30 -10 11 -4 23 -8 27
-9 5 -1 24 -10 44 -21 19 -11 39 -18 45 -15 5 4 9 1 9 -4 0 -6 7 -11 15 -11 8
0 15 -4 15 -9 0 -5 8 -8 17 -7 10 2 24 -3 31 -11 8 -7 17 -11 22 -8 5 3 10 1
12 -4 1 -5 12 -11 23 -13 11 -1 23 -7 27 -12 3 -5 13 -11 21 -12 8 -1 30 -9
48 -17 19 -9 41 -17 49 -19 8 -2 17 -5 20 -8 12 -12 51 -30 65 -30 8 0 15 -4
15 -8 0 -9 -78 -124 -90 -132 -3 -3 -15 -20 -25 -37 -11 -18 -23 -33 -27 -33
-4 0 -8 -6 -8 -14 0 -8 -3 -16 -7 -18 -11 -4 -65 -78 -59 -78 4 0 -2 -8 -11
-18 -28 -29 -53 -62 -53 -68 0 -3 -6 -12 -12 -19 -7 -8 -24 -30 -38 -50 -14
-19 -35 -48 -47 -63 -13 -15 -23 -31 -23 -35 0 -5 -6 -14 -12 -22 -29 -30 -48
-56 -48 -65 0 -6 -7 -13 -15 -16 -8 -4 -15 -12 -15 -20 0 -8 -5 -14 -12 -14
-6 0 -9 -3 -5 -6 3 -3 -2 -14 -11 -24 -32 -35 -42 -49 -54 -75 -6 -14 -15 -25
-19 -25 -4 0 -21 -22 -38 -49 -28 -43 -43 -63 -81 -108 -5 -7 -10 -17 -10 -23
0 -5 -4 -10 -10 -10 -5 0 -10 -7 -10 -15 0 -8 -3 -15 -8 -15 -4 0 -27 -29 -51
-65 -24 -36 -48 -65 -53 -65 -5 0 -7 -4 -4 -8 3 -5 -8 -23 -23 -40 -16 -17
-26 -33 -23 -36 2 -3 -3 -8 -12 -12 -9 -3 -16 -11 -16 -17 0 -5 -16 -29 -35
-53 -19 -23 -35 -47 -35 -53 0 -5 -10 -17 -22 -25 -12 -9 -19 -16 -14 -16 4 0
-4 -14 -18 -31 -14 -17 -26 -34 -26 -37 0 -4 -12 -21 -28 -37 -15 -17 -45 -57
-67 -90 -22 -33 -43 -62 -48 -63 -4 -2 -5 -8 -1 -13 3 -5 1 -9 -4 -9 -5 0 -26
-25 -48 -57 -21 -31 -43 -61 -49 -67 -5 -6 -23 -31 -40 -56 -16 -25 -34 -50
-40 -56 -5 -6 -17 -22 -25 -34 -8 -12 -21 -28 -27 -36 -7 -7 -13 -17 -13 -23
0 -6 -4 -11 -10 -11 -5 0 -10 -7 -10 -15 0 -8 -3 -15 -8 -15 -4 0 -18 -18 -32
-40 -14 -22 -28 -40 -32 -40 -5 0 -8 -5 -8 -10 0 -11 -10 -24 -42 -61 -10 -10
-15 -19 -10 -19 4 0 2 -4 -3 -8 -6 -4 -28 -32 -49 -62 -22 -30 -43 -56 -48
-58 -4 -2 -8 -10 -8 -17 0 -8 -8 -19 -17 -24 -10 -6 -15 -11 -11 -11 7 0 -16
-33 -80 -117 -9 -12 -23 -30 -30 -40 -40 -58 -114 -161 -127 -178 -9 -11 -24
-32 -33 -47 -9 -16 -20 -28 -24 -28 -4 0 -8 -7 -8 -15 0 -7 -6 -18 -14 -22 -7
-4 -21 -23 -30 -40 -9 -18 -22 -33 -28 -33 -6 0 -9 -3 -5 -6 3 -3 -5 -18 -19
-32 -13 -15 -24 -32 -24 -38 0 -7 -7 -14 -15 -18 -8 -3 -15 -12 -15 -21 0 -8
-4 -15 -8 -15 -4 0 -15 -12 -24 -27 -9 -16 -24 -37 -33 -48 -8 -11 -41 -56
-72 -100 -32 -44 -60 -82 -63 -85 -3 -3 -19 -25 -35 -50 -17 -24 -35 -51 -42
-60 -47 -59 -183 -252 -183 -259 0 -5 -4 -11 -8 -13 -8 -3 -85 -107 -162 -218
-19 -28 -43 -60 -52 -72 -10 -12 -18 -25 -18 -30 0 -5 -5 -6 -11 -2 -7 4 -10
1 -7 -6 2 -8 -3 -21 -11 -30 -9 -9 -23 -27 -31 -40 -8 -12 -21 -28 -27 -36 -7
-7 -13 -17 -13 -23 0 -6 -4 -11 -8 -11 -4 0 -16 -15 -27 -32 -10 -18 -21 -35
-25 -38 -3 -3 -17 -21 -30 -40 -13 -19 -30 -41 -37 -48 -7 -7 -13 -17 -13 -21
0 -4 -8 -16 -18 -27 -10 -10 -28 -36 -41 -56 -12 -21 -27 -38 -32 -38 -5 0 -8
-3 -7 -7 2 -5 -5 -17 -15 -28 -9 -11 -17 -23 -17 -27 0 -5 -8 -16 -17 -26 -10
-10 -25 -29 -33 -42 -8 -13 -23 -32 -32 -42 -10 -10 -15 -18 -12 -18 3 0 -1
-7 -9 -15 -8 -8 -25 -30 -37 -50 -12 -19 -26 -35 -31 -35 -5 0 -8 -3 -7 -7 2
-5 -10 -26 -26 -48 -93 -126 -112 -150 -119 -153 -4 -2 -5 -8 -1 -13 3 -5 0
-9 -5 -9 -6 0 -11 -7 -11 -15 0 -8 -4 -15 -8 -15 -4 0 -36 -40 -70 -90 -35
-49 -67 -90 -73 -90 -6 0 -8 -4 -4 -9 3 -6 -3 -14 -12 -20 -10 -6 -14 -11 -9
-11 4 0 -8 -20 -28 -44 -20 -24 -36 -47 -36 -51 0 -3 -5 -11 -10 -18 -24 -28
-46 -57 -60 -77 -8 -12 -21 -28 -27 -36 -7 -7 -13 -16 -13 -21 0 -4 -13 -22
-30 -39 -16 -18 -26 -34 -23 -38 3 -3 -2 -8 -11 -12 -9 -3 -16 -12 -16 -18 0
-7 -8 -21 -18 -32 -10 -10 -32 -40 -50 -66 -18 -25 -38 -52 -44 -60 -7 -7 -30
-39 -51 -70 -21 -31 -47 -67 -58 -79 -10 -12 -19 -26 -19 -30 0 -5 -10 -17
-22 -29 -12 -11 -18 -20 -13 -20 4 0 -2 -8 -13 -19 -12 -10 -22 -23 -22 -29 0
-6 -3 -12 -8 -14 -4 -1 -24 -29 -45 -60 -21 -32 -42 -58 -48 -58 -5 0 -9 -6
-9 -14 0 -8 -14 -28 -30 -46 -17 -18 -28 -35 -26 -37 3 -3 -4 -15 -15 -27 -38
-41 -89 -111 -89 -122 0 -7 -7 -14 -15 -18 -8 -3 -15 -13 -15 -21 0 -9 -4 -14
-8 -11 -4 2 -13 -7 -20 -22 -6 -15 -23 -39 -36 -53 -14 -15 -22 -30 -19 -33 4
-3 1 -6 -5 -6 -7 0 -12 -6 -12 -14 0 -8 -7 -16 -15 -20 -8 -3 -15 -12 -15 -20
0 -7 -7 -16 -15 -20 -8 -3 -15 -12 -15 -20 0 -7 -7 -17 -16 -20 -9 -4 -14 -9
-11 -13 4 -3 -3 -14 -15 -24 -11 -11 -17 -19 -12 -19 5 0 2 -6 -6 -13 -9 -7
-26 -28 -37 -47 -12 -20 -32 -47 -43 -60 -12 -14 -29 -37 -38 -52 -9 -16 -20
-28 -24 -28 -4 0 -8 -6 -8 -14 0 -8 -4 -16 -8 -18 -5 -1 -23 -25 -42 -53 -19
-27 -41 -58 -50 -68 -8 -10 -13 -19 -10 -20 3 -2 -7 -15 -22 -29 -16 -14 -28
-30 -28 -37 0 -6 -5 -11 -11 -11 -5 0 -7 -4 -4 -10 3 -5 3 -10 -2 -10 -4 0
-19 -16 -32 -35 -13 -19 -32 -44 -42 -56 -11 -12 -19 -28 -19 -36 0 -8 -4 -12
-9 -8 -5 3 -12 -4 -16 -15 -3 -11 -11 -20 -16 -20 -6 0 -7 -5 -4 -10 3 -6 -1
-13 -9 -16 -8 -3 -18 -14 -21 -25 -4 -10 -12 -25 -19 -31 -6 -7 -27 -35 -46
-63 -18 -27 -36 -52 -40 -55 -3 -3 -17 -21 -30 -40 -13 -19 -29 -38 -35 -42
-5 -4 -6 -8 -2 -8 5 0 1 -7 -7 -16 -9 -8 -30 -37 -48 -62 -18 -26 -38 -53 -44
-60 -7 -6 -15 -21 -19 -31 -3 -11 -12 -22 -20 -25 -8 -3 -15 -12 -15 -21 0 -8
-4 -15 -9 -15 -5 0 -12 -8 -15 -17 -4 -10 -19 -34 -35 -53 -17 -19 -36 -42
-43 -51 -7 -9 -14 -21 -16 -27 -1 -7 -10 -20 -21 -31 -10 -10 -27 -32 -37 -50
-10 -17 -22 -31 -26 -31 -4 0 -8 -5 -8 -12 0 -7 -11 -23 -24 -37 -14 -15 -26
-32 -28 -40 -2 -8 -14 -26 -28 -42 -43 -48 -50 -58 -50 -69 0 -5 -4 -10 -9
-10 -5 0 -12 -8 -15 -18 -4 -10 -16 -29 -27 -41 -11 -12 -32 -41 -45 -64 -13
-23 -24 -38 -24 -32 0 8 -28 -31 -81 -112 -12 -18 -25 -33 -31 -33 -5 0 -7 -4
-4 -8 2 -4 -9 -23 -25 -41 -16 -19 -29 -37 -29 -42 0 -5 -13 -22 -30 -39 -16
-16 -27 -30 -24 -30 7 0 -58 -84 -68 -88 -5 -2 -8 -12 -8 -23 0 -10 -4 -19 -9
-19 -4 0 -21 -19 -36 -42 -15 -23 -32 -47 -36 -52 -5 -6 -20 -25 -34 -42 -14
-18 -25 -36 -25 -42 0 -6 -3 -12 -7 -14 -9 -4 -60 -70 -88 -113 -10 -16 -23
-35 -29 -42 -29 -33 -36 -43 -36 -52 0 -5 -4 -11 -8 -13 -4 -1 -34 -40 -65
-85 -32 -46 -65 -90 -73 -98 -9 -8 -12 -15 -7 -15 4 0 1 -6 -7 -13 -8 -7 -26
-29 -40 -49 -14 -21 -29 -38 -33 -38 -5 0 -6 -4 -3 -8 3 -5 -3 -18 -12 -28
-10 -11 -42 -53 -72 -94 -29 -41 -60 -81 -69 -87 -8 -7 -11 -13 -7 -13 4 0 -3
-13 -16 -29 -12 -15 -30 -39 -38 -51 -8 -13 -23 -32 -32 -42 -10 -10 -18 -21
-18 -24 0 -6 -72 -106 -105 -146 -8 -10 -12 -18 -9 -18 2 0 -7 -12 -21 -27
-14 -15 -25 -31 -25 -34 0 -3 -8 -15 -17 -27 -47 -54 -53 -63 -53 -72 0 -5
-10 -18 -22 -30 -12 -11 -19 -20 -15 -20 4 0 -1 -8 -12 -19 -10 -10 -20 -24
-23 -31 -3 -10 -9 -11 -24 -2 -11 7 -14 12 -5 12 7 0 11 6 8 14 -3 8 -3 17 1
20 3 4 7 12 8 19 1 7 7 38 13 69 7 31 13 66 14 77 1 12 6 21 11 21 5 0 7 2 4
5 -3 4 -2 24 3 46 5 21 12 56 15 77 3 20 10 45 15 55 7 12 6 17 -3 17 -8 0 -9
3 -3 8 6 4 11 13 13 20 1 6 3 18 5 25 1 6 7 15 12 19 6 5 5 8 -3 8 -9 0 -10 5
-3 18 5 10 12 33 14 52 3 19 6 36 7 38 7 7 24 106 21 120 -1 6 4 12 11 12 9 0
9 3 -2 10 -12 7 -12 10 -1 10 7 0 11 6 7 15 -3 8 -2 15 2 15 5 0 9 10 9 23 1
12 4 33 7 47 3 14 9 44 14 67 5 24 7 43 5 43 -2 0 -1 6 4 13 8 13 11 27 15 64
1 13 5 23 8 23 3 0 5 10 6 23 0 12 4 38 9 57 4 19 8 41 8 48 0 6 5 12 11 12 6
0 4 5 -4 10 -8 5 -10 10 -4 10 6 0 11 6 11 13 1 6 4 30 9 52 4 22 7 48 8 58 0
9 5 17 10 17 5 0 7 2 4 5 -3 3 3 45 13 93 11 48 24 112 30 142 17 84 17 85 20
85 1 0 3 14 4 30 1 17 5 37 8 45 4 8 8 26 11 40 2 14 9 47 15 74 7 27 9 51 7
54 -3 2 -1 13 5 24 11 20 15 37 25 97 3 18 8 42 10 52 7 33 14 63 20 89 3 14
6 33 6 42 -1 10 5 18 11 18 7 0 6 4 -3 10 -10 6 -11 10 -2 10 6 0 11 3 10 8
-1 4 2 22 6 40 4 19 9 43 11 55 2 12 6 34 9 50 3 15 8 38 11 52 3 14 8 37 11
53 3 15 7 36 9 47 1 11 3 20 5 20 1 0 4 16 6 35 3 19 8 42 11 50 4 8 8 24 10
35 4 28 11 60 13 60 2 0 11 61 13 88 1 9 4 17 8 17 4 0 6 8 4 18 -1 9 0 22 3
27 4 6 8 19 9 30 6 50 12 74 22 92 5 11 8 23 5 25 -2 3 0 25 6 49 15 64 21 91
25 119 2 14 4 25 5 25 2 0 12 43 24 110 7 40 14 70 16 70 2 0 10 37 14 70 5
39 17 87 25 100 4 6 6 27 6 47 0 21 3 38 6 38 3 0 6 6 7 13 5 49 10 76 16 85
3 5 8 26 10 45 3 20 9 53 15 74 5 21 13 56 16 78 7 45 13 70 15 70 1 0 3 9 5
20 5 29 14 76 21 105 3 14 8 36 10 50 3 14 9 41 14 60 5 19 11 51 14 70 3 19
10 50 15 69 6 19 8 37 6 42 -3 4 -1 10 4 13 5 4 8 14 6 24 -1 9 1 24 5 32 8
15 22 82 23 113 1 9 4 17 7 17 3 0 7 10 7 23 4 50 8 77 14 77 3 0 6 11 7 25 1
14 4 36 5 50 1 14 5 25 8 25 3 0 6 6 6 13 1 16 10 65 28 147 20 89 28 131 39
200 3 14 5 25 6 25 2 0 5 16 14 58 3 16 11 36 18 45 10 12 10 14 1 8 -16 -9
-17 6 -1 22 7 7 8 12 4 12 -5 0 -2 8 5 17 12 14 12 15 1 9 -11 -7 -12 -4 -4
10 5 11 12 35 15 54 3 19 9 49 12 65 4 17 8 39 10 50 2 11 8 37 13 57 5 20 7
39 4 42 -3 4 -1 6 5 6 6 0 9 11 8 25 -2 14 0 25 4 25 4 0 8 11 9 25 4 54 5 60
15 73 6 8 5 12 -4 12 -9 0 -10 3 -3 8 17 11 25 42 11 42 -8 0 -6 4 3 10 8 5
11 10 7 10 -5 0 -5 6 0 13 7 11 12 36 16 85 1 12 5 22 8 22 6 0 8 10 11 55 1
14 5 25 8 25 3 0 6 8 6 18 1 9 4 33 8 52 4 19 8 44 10 55 2 11 4 20 6 20 1 0
4 11 6 25 10 71 17 105 23 110 3 3 7 16 8 30 1 14 4 39 8 55 4 17 7 38 8 48 1
9 4 17 7 17 4 0 6 10 5 23 -1 12 0 27 4 32 6 12 10 30 14 67 1 16 5 28 9 28 3
0 5 8 3 18 -1 9 0 21 3 27 4 5 7 23 8 38 2 16 8 34 14 42 8 10 8 15 -1 20 -7
5 -8 10 -1 14 6 4 13 22 15 41 2 19 8 43 12 53 4 10 5 21 2 24 -4 3 -2 13 3
23 5 10 14 44 20 76 9 54 15 80 20 94 1 3 2 9 1 14 -1 4 4 15 11 24 11 13 11
14 -2 7 -13 -8 -13 -7 -1 8 7 9 11 17 8 17 -3 0 -1 17 5 38 5 20 11 51 14 67
6 40 12 70 14 70 2 0 6 19 14 65 3 19 9 49 14 65 4 17 8 39 8 50 -1 11 2 22 6
25 3 3 9 21 11 40 3 19 6 35 7 35 2 0 4 9 5 20 3 24 12 70 19 105 4 14 8 34
11 45 2 11 7 31 10 45 3 14 8 40 10 59 3 18 8 37 11 43 7 11 15 53 17 91 1 15
4 27 7 27 3 0 6 10 7 23 1 12 4 33 7 47 3 14 9 39 11 55 3 17 8 38 11 47 3 9
7 27 10 40 2 13 7 37 10 53 4 17 7 38 8 47 1 10 5 20 8 24 4 3 4 12 1 20 -3 8
0 14 7 14 6 0 9 3 7 8 -3 4 3 45 13 92 10 47 16 88 14 92 -2 4 1 10 7 13 5 4
8 13 5 20 -2 7 -2 16 2 20 3 3 7 16 8 28 1 12 5 33 9 47 5 22 19 89 30 145 2
11 4 21 5 23 2 1 4 7 5 12 1 6 3 11 4 13 1 1 4 16 6 32 2 17 6 41 9 55 4 14 8
36 11 50 3 14 7 36 10 50 3 14 8 38 10 54 3 16 11 38 16 49 8 15 8 18 -1 12
-9 -6 -9 -3 -1 13 6 12 11 25 10 29 -1 4 0 10 1 13 2 7 10 41 15 65 2 11 6 31
10 45 6 31 13 65 20 105 3 17 10 46 15 65 5 19 12 50 15 68 3 18 12 60 19 93
8 33 14 60 14 62 0 9 15 85 19 97 7 19 14 59 16 88 0 12 4 22 8 22 4 0 6 8 4
18 -1 9 0 22 4 27 3 6 7 21 7 35 1 14 3 25 4 25 2 0 8 32 12 63 1 6 4 12 8 12
3 0 6 10 7 23 0 18 7 59 17 102 4 15 25 116 30 145 3 14 10 43 15 65 6 22 13
56 16 75 3 19 11 53 16 75 5 22 11 51 14 65 2 14 9 48 15 75 6 28 12 59 15 70
2 11 6 31 10 45 6 31 13 65 21 105 2 17 11 54 19 83 9 38 10 52 2 52 -9 0 -9
2 0 8 7 4 15 23 18 42 4 19 8 40 9 45 1 6 5 16 9 23 5 7 3 12 -5 12 -9 0 -9 3
-2 8 17 11 25 42 11 42 -9 0 -9 2 -1 8 7 4 15 24 18 45 3 22 13 70 22 107 8
37 17 81 19 97 2 15 4 29 6 31 1 1 2 5 3 10 1 4 5 13 9 20 5 7 3 12 -5 12 -9
0 -10 2 -1 8 6 4 14 23 17 42 8 40 12 62 21 105 3 17 8 39 9 50 6 33 17 79 23
95 3 8 7 26 9 40 1 14 5 36 9 50 8 36 16 81 18 110 1 14 5 27 9 30 4 3 8 21
10 39 1 18 6 35 10 37 4 2 5 13 3 24 -2 11 0 20 4 20 4 0 7 10 6 23 -1 12 1
27 5 32 4 6 7 17 7 25 1 20 10 61 18 83 7 16 9 16 44 -2 20 -10 47 -23 61 -29z
m-2750 -12605 c0 -8 -7 -14 -15 -14 -11 0 -12 4 -4 14 6 7 13 13 15 13 2 0 4
-6 4 -13z"/>
</g>
</svg>
